<mxfile host="app.diagrams.net" modified="2022-07-27T06:48:08.214Z" agent="5.0 (Macintosh; Intel Mac OS X 10_15_7) AppleWebKit/605.1.15 (KHTML, like Gecko) Version/15.5 Safari/605.1.15" etag="tReUtsd6Yju1lkiQKs23" version="20.1.3" type="github">
  <diagram id="z5EvUv-PNC9T4YgjKoEC" name="第 1 页">
    <mxGraphModel dx="1426" dy="825" grid="1" gridSize="10" guides="1" tooltips="1" connect="1" arrows="1" fold="1" page="1" pageScale="1" pageWidth="827" pageHeight="1169" math="0" shadow="0">
      <root>
        <mxCell id="0" />
        <mxCell id="1" parent="0" />
        <mxCell id="dpDCDZyxdetiv9obsiAc-2" value="" style="shape=ext;double=1;rounded=0;whiteSpace=wrap;html=1;labelBackgroundColor=#FFFFFF;fontFamily=Helvetica;fontSize=18;fontColor=#333333;fillColor=#f5f5f5;strokeColor=#666666;" vertex="1" parent="1">
          <mxGeometry x="50" y="50" width="750" height="420" as="geometry" />
        </mxCell>
        <mxCell id="dpDCDZyxdetiv9obsiAc-3" value="RPC" style="text;strokeColor=none;fillColor=none;html=1;fontSize=24;fontStyle=1;verticalAlign=middle;align=center;labelBackgroundColor=#FFFFFF;fontFamily=Helvetica;fontColor=#000000;" vertex="1" parent="1">
          <mxGeometry x="50" y="50" width="100" height="40" as="geometry" />
        </mxCell>
        <mxCell id="dpDCDZyxdetiv9obsiAc-9" style="edgeStyle=orthogonalEdgeStyle;rounded=0;orthogonalLoop=1;jettySize=auto;html=1;exitX=0.25;exitY=1;exitDx=0;exitDy=0;entryX=0.5;entryY=0;entryDx=0;entryDy=0;fontFamily=Helvetica;fontSize=18;fontColor=#000000;" edge="1" parent="1" source="dpDCDZyxdetiv9obsiAc-4" target="dpDCDZyxdetiv9obsiAc-5">
          <mxGeometry relative="1" as="geometry" />
        </mxCell>
        <mxCell id="dpDCDZyxdetiv9obsiAc-10" style="edgeStyle=orthogonalEdgeStyle;rounded=0;orthogonalLoop=1;jettySize=auto;html=1;exitX=0.75;exitY=1;exitDx=0;exitDy=0;entryX=0.5;entryY=0;entryDx=0;entryDy=0;fontFamily=Helvetica;fontSize=18;fontColor=#000000;" edge="1" parent="1" source="dpDCDZyxdetiv9obsiAc-4" target="dpDCDZyxdetiv9obsiAc-6">
          <mxGeometry relative="1" as="geometry" />
        </mxCell>
        <mxCell id="dpDCDZyxdetiv9obsiAc-4" value="ReportPeerResult" style="shape=ext;double=1;rounded=1;whiteSpace=wrap;html=1;labelBackgroundColor=#FFFFFF;fontFamily=Helvetica;fontSize=18;fontColor=#000000;" vertex="1" parent="1">
          <mxGeometry x="314" y="80" width="200" height="80" as="geometry" />
        </mxCell>
        <mxCell id="dpDCDZyxdetiv9obsiAc-8" style="edgeStyle=orthogonalEdgeStyle;rounded=0;orthogonalLoop=1;jettySize=auto;html=1;exitX=0.5;exitY=1;exitDx=0;exitDy=0;entryX=0.5;entryY=0;entryDx=0;entryDy=0;fontFamily=Helvetica;fontSize=18;fontColor=#000000;" edge="1" parent="1" source="dpDCDZyxdetiv9obsiAc-5" target="dpDCDZyxdetiv9obsiAc-7">
          <mxGeometry relative="1" as="geometry" />
        </mxCell>
        <mxCell id="dpDCDZyxdetiv9obsiAc-5" value="success" style="shape=ext;double=1;rounded=1;whiteSpace=wrap;html=1;labelBackgroundColor=#FFFFFF;fontFamily=Helvetica;fontSize=18;fontColor=#000000;" vertex="1" parent="1">
          <mxGeometry x="194" y="210" width="120" height="80" as="geometry" />
        </mxCell>
        <mxCell id="dpDCDZyxdetiv9obsiAc-13" style="edgeStyle=orthogonalEdgeStyle;rounded=0;orthogonalLoop=1;jettySize=auto;html=1;exitX=0.25;exitY=1;exitDx=0;exitDy=0;entryX=0.5;entryY=0;entryDx=0;entryDy=0;fontFamily=Helvetica;fontSize=18;fontColor=#000000;" edge="1" parent="1" source="dpDCDZyxdetiv9obsiAc-6" target="dpDCDZyxdetiv9obsiAc-11">
          <mxGeometry relative="1" as="geometry" />
        </mxCell>
        <mxCell id="dpDCDZyxdetiv9obsiAc-14" style="edgeStyle=orthogonalEdgeStyle;rounded=0;orthogonalLoop=1;jettySize=auto;html=1;exitX=0.75;exitY=1;exitDx=0;exitDy=0;fontFamily=Helvetica;fontSize=18;fontColor=#000000;" edge="1" parent="1" source="dpDCDZyxdetiv9obsiAc-6" target="dpDCDZyxdetiv9obsiAc-12">
          <mxGeometry relative="1" as="geometry" />
        </mxCell>
        <mxCell id="dpDCDZyxdetiv9obsiAc-6" value="fail" style="shape=ext;double=1;rounded=1;whiteSpace=wrap;html=1;labelBackgroundColor=#FFFFFF;fontFamily=Helvetica;fontSize=18;fontColor=#000000;" vertex="1" parent="1">
          <mxGeometry x="540" y="210" width="120" height="80" as="geometry" />
        </mxCell>
        <mxCell id="dpDCDZyxdetiv9obsiAc-7" value="如果是tiny类型&lt;br&gt;保存分片到内存" style="shape=ext;double=1;rounded=1;whiteSpace=wrap;html=1;labelBackgroundColor=#FFFFFF;fontFamily=Helvetica;fontSize=18;fontColor=#000000;" vertex="1" parent="1">
          <mxGeometry x="169" y="370" width="170" height="80" as="geometry" />
        </mxCell>
        <mxCell id="dpDCDZyxdetiv9obsiAc-11" value="回源失败/seed peer失败/task失败次数超过阈值通知相应code" style="shape=ext;double=1;rounded=1;whiteSpace=wrap;html=1;labelBackgroundColor=#FFFFFF;fontFamily=Helvetica;fontSize=18;fontColor=#000000;" vertex="1" parent="1">
          <mxGeometry x="394" y="370" width="176" height="80" as="geometry" />
        </mxCell>
        <mxCell id="dpDCDZyxdetiv9obsiAc-12" value="失败节点的孩子重新调度parent" style="shape=ext;double=1;rounded=1;whiteSpace=wrap;html=1;labelBackgroundColor=#FFFFFF;fontFamily=Helvetica;fontSize=18;fontColor=#000000;" vertex="1" parent="1">
          <mxGeometry x="590" y="370" width="180" height="80" as="geometry" />
        </mxCell>
      </root>
    </mxGraphModel>
  </diagram>
</mxfile>
